<?xml version="1.0" standalone="no"?>
<!DOCTYPE svg PUBLIC "-//W3C//DTD SVG 20010904//EN"
 "http://www.w3.org/TR/2001/REC-SVG-20010904/DTD/svg10.dtd">
<svg version="1.0" xmlns="http://www.w3.org/2000/svg"
 width="1280.000000pt" height="1280.000000pt" viewBox="0 0 1280.000000 1280.000000"
 preserveAspectRatio="xMidYMid meet">
<metadata>
Created by potrace 1.11, written by Peter Selinger 2001-2013
</metadata>
<g transform="translate(0.000000,1280.000000) scale(0.100000,-0.100000)"
fill="#000000" stroke="none">
<path d="M6267 11230 c-304 -52 -548 -250 -661 -535 -37 -92 -57 -200 -57
-305 1 -84 3 -103 22 -188 5 -24 7 -47 4 -52 -5 -7 -61 -41 -306 -180 -43 -25
-136 -79 -206 -120 -70 -41 -132 -77 -138 -79 -5 -2 -53 -29 -105 -61 -52 -31
-147 -86 -210 -122 -135 -76 -214 -122 -405 -233 -77 -45 -164 -95 -193 -111
-53 -30 -304 -173 -356 -204 -27 -17 -29 -17 -56 9 -161 153 -363 233 -590
234 -43 0 -151 -10 -180 -18 -3 -1 -21 -5 -40 -9 -76 -17 -170 -62 -260 -124
-102 -70 -106 -74 -184 -172 -69 -87 -99 -139 -131 -235 -47 -139 -61 -292
-40 -425 13 -87 67 -229 115 -307 45 -72 127 -166 193 -220 27 -23 108 -77
117 -78 3 -1 25 -10 50 -22 80 -37 122 -53 141 -53 17 0 19 -8 19 -62 1 -78 1
-2167 0 -2189 0 -11 -18 -22 -51 -33 -89 -30 -192 -82 -264 -136 -51 -38 -161
-162 -202 -227 -51 -82 -108 -239 -119 -329 -40 -314 93 -625 342 -802 152
-107 279 -151 464 -158 227 -9 433 64 600 214 l45 40 60 -31 c33 -17 127 -70
208 -119 82 -48 150 -88 153 -88 3 0 75 -41 162 -92 86 -50 211 -122 277 -160
66 -39 185 -108 265 -155 80 -47 166 -96 191 -109 26 -13 67 -37 92 -54 25
-16 48 -30 51 -30 4 0 33 -16 64 -37 31 -20 71 -42 87 -50 17 -7 48 -24 70
-38 22 -13 69 -41 105 -62 36 -21 74 -44 85 -50 11 -7 35 -19 53 -28 31 -15
32 -17 26 -58 -4 -23 -10 -52 -15 -63 -4 -12 -8 -73 -8 -135 0 -181 43 -324
143 -477 51 -78 70 -99 156 -175 188 -165 475 -238 720 -182 125 28 246 80
317 135 226 176 349 403 358 660 3 88 0 114 -20 220 -15 79 -16 79 68 131 43
27 81 49 84 49 3 0 17 8 31 19 15 10 61 36 102 59 41 22 123 69 182 104 59 35
182 106 273 158 90 52 228 132 305 178 78 45 143 82 146 82 3 0 40 21 81 46
84 51 114 68 223 129 41 23 104 60 140 82 36 22 116 68 179 102 l114 63 22
-28 c34 -44 173 -140 260 -180 98 -45 193 -66 321 -69 295 -8 531 107 710 345
104 138 162 313 162 492 1 264 -108 491 -321 673 -54 46 -199 120 -283 145
l-41 12 1 1130 1 1129 67 23 c143 50 223 100 324 200 114 115 165 197 215 351
29 92 32 111 33 235 1 155 -4 190 -45 306 -36 102 -74 169 -142 249 -70 83
-91 103 -179 163 -121 83 -219 120 -368 138 -110 14 -134 12 -336 -20 -79 -13
-269 -121 -354 -202 -32 -30 -38 -32 -55 -21 -11 8 -49 30 -85 49 -36 20 -118
67 -182 104 -139 82 -371 216 -483 280 -44 25 -93 54 -110 64 -94 54 -380 219
-435 250 -36 20 -103 60 -150 88 -47 28 -112 66 -145 83 -33 17 -84 47 -113
65 -29 19 -54 34 -57 34 -3 0 -34 18 -70 40 -36 22 -69 40 -73 40 -24 0 -29
23 -15 78 17 71 24 234 12 298 -5 27 -11 60 -14 72 -15 81 -72 209 -135 302
-72 105 -191 210 -306 268 -41 21 -152 61 -189 68 -11 2 -31 6 -45 10 -43 10
-233 12 -283 4z m-486 -1504 c-16 -28 -61 -105 -99 -171 -188 -328 -267 -463
-290 -499 -13 -22 -30 -51 -36 -65 -6 -14 -42 -78 -80 -141 -38 -63 -85 -144
-104 -180 -19 -36 -47 -83 -61 -105 -14 -22 -31 -50 -38 -63 -22 -41 -167
-293 -191 -330 -12 -20 -28 -48 -34 -62 -7 -14 -45 -80 -85 -146 -40 -67 -87
-150 -106 -185 -18 -35 -46 -84 -62 -109 -29 -44 -46 -74 -94 -161 -13 -24
-52 -91 -86 -149 -34 -58 -73 -125 -87 -150 -34 -61 -60 -107 -92 -160 -14
-25 -42 -74 -63 -110 -20 -36 -75 -131 -122 -212 -193 -330 -247 -424 -267
-462 -12 -23 -35 -63 -52 -91 -17 -27 -71 -120 -120 -205 -49 -85 -108 -189
-132 -230 -24 -41 -81 -139 -127 -217 -45 -78 -83 -146 -83 -151 0 -18 -30
-36 -42 -24 -7 7 -10 337 -10 1114 1 1294 -1 1158 16 1158 27 0 186 72 248
112 35 23 92 71 128 107 161 163 241 354 245 585 1 64 -3 133 -11 165 -21 86
-21 85 64 130 42 22 98 53 123 68 26 16 93 55 150 87 57 33 159 92 226 133 67
40 125 73 128 73 3 0 73 39 155 88 220 130 346 202 426 247 40 22 125 72 190
110 65 39 123 72 129 74 5 2 47 26 93 53 188 113 256 147 269 136 10 -8 7 -21
-16 -62z m1369 -5 c41 -24 86 -51 100 -60 14 -9 57 -34 97 -56 61 -34 301
-173 491 -283 31 -19 77 -45 102 -59 25 -14 104 -59 175 -100 72 -42 177 -103
235 -136 58 -34 124 -74 148 -89 23 -16 42 -27 42 -24 0 6 19 -5 134 -74 116
-70 152 -91 206 -119 88 -47 91 -51 81 -91 -54 -199 -12 -460 101 -637 117
-180 241 -279 448 -357 l65 -24 1 -1130 c1 -1101 0 -1131 -18 -1135 -14 -4
-22 2 -29 21 -6 15 -23 47 -38 72 -16 25 -53 88 -83 140 -30 52 -90 156 -134
230 -43 74 -85 149 -94 165 -20 38 -82 145 -120 207 -16 26 -43 73 -61 105
-29 52 -108 189 -134 231 -6 9 -25 44 -43 77 -18 33 -37 67 -42 75 -24 37
-102 170 -129 221 -16 31 -64 113 -105 183 -42 70 -76 129 -76 131 0 3 -36 65
-80 139 -44 73 -80 137 -80 140 0 4 -11 23 -24 44 -50 80 -156 261 -156 267 0
4 -13 26 -28 49 -15 22 -31 48 -34 58 -4 9 -29 53 -57 98 -28 45 -51 85 -51
89 0 4 -20 40 -45 80 -25 40 -45 77 -45 82 0 5 -4 9 -10 9 -5 0 -10 4 -10 9 0
9 -127 235 -174 309 -13 21 -39 66 -57 101 -19 35 -38 71 -44 80 -5 9 -39 66
-74 126 -173 297 -241 415 -271 470 -18 33 -36 65 -40 70 -33 41 -200 351
-196 361 6 17 47 0 156 -65z m-910 -161 c60 -17 259 -14 335 4 33 8 60 14 61
13 0 -1 26 -45 57 -98 32 -53 57 -99 57 -103 0 -3 22 -42 48 -85 27 -43 87
-144 133 -225 46 -81 93 -162 103 -179 10 -18 33 -58 50 -89 17 -31 66 -115
109 -186 42 -71 77 -133 77 -136 0 -3 22 -41 48 -84 27 -42 55 -90 64 -107 8
-16 39 -70 68 -120 29 -49 97 -169 152 -265 56 -96 120 -207 144 -246 24 -39
44 -73 44 -76 0 -4 38 -71 84 -150 96 -164 221 -379 341 -588 145 -252 258
-447 329 -568 38 -64 81 -140 96 -168 16 -28 66 -116 113 -195 76 -130 114
-197 154 -269 8 -14 22 -38 32 -55 10 -16 47 -79 81 -140 34 -60 82 -141 106
-180 72 -118 72 -116 10 -189 -72 -85 -129 -186 -155 -274 l-22 -72 -2561 2
-2561 3 -27 80 c-33 96 -82 181 -155 265 -41 47 -52 66 -45 79 19 37 144 248
161 273 11 15 19 31 19 36 0 5 28 56 63 113 35 57 99 166 143 243 43 76 86
150 95 165 8 14 29 51 46 81 53 97 127 225 134 230 4 3 20 32 37 65 16 33 66
121 111 195 44 74 81 141 81 148 0 6 5 12 10 12 6 0 10 5 10 10 0 6 30 62 68
124 122 207 240 410 261 451 12 22 46 81 76 130 30 50 67 115 83 145 16 30 64
113 106 183 42 71 76 130 76 133 0 3 26 48 59 102 32 53 88 151 126 217 37 66
87 152 111 191 24 39 44 73 44 76 0 4 34 64 77 135 42 70 94 162 116 203 22
41 45 82 52 90 6 8 33 53 60 100 26 47 87 153 135 235 48 83 89 155 91 160 2
6 26 47 52 92 34 57 54 81 65 78 10 -1 37 -9 62 -15z m2722 -5250 c15 -34 7
-49 -39 -72 -27 -13 -102 -56 -168 -95 -66 -38 -142 -83 -170 -98 -27 -15
-102 -58 -166 -96 -64 -38 -122 -69 -128 -69 -6 0 -11 -4 -11 -10 0 -5 -4 -10
-10 -10 -5 0 -50 -25 -99 -55 -50 -30 -119 -70 -153 -88 -92 -50 -186 -105
-245 -143 -28 -19 -55 -34 -59 -34 -7 0 -160 -88 -454 -261 -63 -37 -141 -81
-173 -99 l-58 -32 -47 39 c-26 21 -54 45 -62 53 -60 58 -217 133 -330 157 -68
14 -110 18 -210 17 -208 -1 -376 -64 -535 -201 -27 -24 -55 -43 -62 -43 -13 0
-73 32 -171 92 -34 21 -65 38 -69 38 -3 0 -14 6 -22 14 -9 8 -45 29 -81 48
-36 19 -121 68 -190 108 -289 169 -368 215 -420 243 -30 17 -110 64 -177 104
-68 40 -125 73 -128 73 -3 0 -68 37 -144 83 -184 108 -351 205 -415 240 -107
59 -136 78 -136 92 0 7 5 15 10 17 6 2 1159 3 2563 3 2274 0 2553 -1 2559 -15z"/>
<path d="M6326 8565 c-42 -74 -90 -160 -108 -192 -17 -32 -34 -62 -38 -68 -5
-5 -20 -32 -36 -60 -106 -193 -312 -557 -333 -590 -14 -22 -30 -49 -36 -60 -6
-11 -42 -74 -79 -140 -115 -201 -191 -337 -226 -400 -18 -33 -79 -141 -135
-240 -96 -169 -231 -409 -262 -465 -8 -14 -24 -43 -37 -65 -12 -22 -37 -67
-56 -100 -18 -33 -69 -123 -113 -200 -43 -77 -93 -165 -109 -195 -17 -30 -45
-80 -63 -110 -18 -30 -46 -81 -64 -112 -72 -133 -96 -176 -133 -237 -21 -34
-38 -67 -38 -72 0 -5 312 -9 748 -9 l747 0 65 117 c36 64 78 139 93 167 16 28
39 69 52 91 12 22 33 58 45 80 13 22 54 96 93 165 39 69 77 138 85 153 8 16
15 27 17 25 1 -2 32 -55 67 -118 164 -289 197 -348 220 -390 30 -54 86 -154
111 -195 9 -16 25 -45 34 -62 l17 -33 748 0 c411 0 748 2 748 5 0 3 -29 57
-65 120 -36 63 -65 119 -65 124 0 5 -4 11 -8 13 -5 2 -30 44 -57 93 -26 50
-51 95 -55 100 -8 11 -44 75 -93 165 -16 30 -35 64 -42 75 -10 17 -122 215
-223 395 -14 25 -34 61 -45 80 -11 19 -31 55 -45 80 -14 25 -34 61 -45 80 -71
124 -154 272 -175 310 -13 25 -29 54 -35 65 -33 56 -118 205 -139 245 -14 25
-34 61 -45 80 -11 19 -51 89 -88 155 -37 66 -97 170 -132 230 -36 61 -69 117
-73 125 -21 36 -95 168 -110 195 -9 17 -58 104 -110 195 -51 91 -102 181 -113
200 -10 19 -27 49 -37 65 -9 17 -32 57 -50 90 -77 139 -92 165 -94 165 -2 0
-38 -61 -80 -135z"/>
</g>
</svg>
